<?xml version="1.0" encoding="utf-8"?>
<!-- Generator: Adobe Illustrator 17.1.0, SVG Export Plug-In . SVG Version: 6.00 Build 0)  -->
<!DOCTYPE svg PUBLIC "-//W3C//DTD SVG 1.1//EN" "http://www.w3.org/Graphics/SVG/1.1/DTD/svg11.dtd">
<svg version="1.1" id="Layer_1" xmlns="http://www.w3.org/2000/svg" xmlns:xlink="http://www.w3.org/1999/xlink" x="0px" y="0px"
	 viewBox="0 0 30 25.1" enable-background="new 0 0 30 25.1" xml:space="preserve">
<ellipse fill="#C9C9C9" cx="15" cy="31.9" rx="19.6" ry="13.9"/>
<g>
	<path fill="#FFFFFF" d="M19.9,22.4c-1.5,1.9-7.9,1.7-9.5,0c-0.9-0.9,0-5.3,0-5.3h9.5C19.9,17.1,20.7,21.4,19.9,22.4z"/>
	<rect x="12.4" y="20.3" fill="#FFFFFF" width="5.3" height="5.3"/>
</g>
<ellipse fill="#C9C9C9" cx="15.1" cy="9.4" rx="6.1" ry="7"/>
<g>
	<path fill="#FFFFFF" d="M14.9,9c0,1.1-1.2,2.9-2.5,2.9c-1.3,0-2.3-0.9-2.3-2c0-1.1-1.3-2,0-2C11.4,7.8,14.9,7.8,14.9,9z"/>
	<path fill="#FFFFFF" d="M15.4,9c0,1.1,1.2,2.9,2.5,2.9c1.3,0,2.3-0.9,2.3-2c0-1.1,1.3-2,0-2C18.9,7.8,15.4,7.8,15.4,9z"/>
	<path fill="#FFFFFF" d="M16,9.8c0,0.2-0.1,0.3-0.3,0.3h-1.3c-0.2,0-0.3-0.1-0.3-0.3V9.5c0-0.2,0.1-0.3,0.3-0.3h1.3
		c0.2,0,0.3,0.1,0.3,0.3V9.8z"/>
</g>
<ellipse fill="#C9C9C9" stroke="#FFFFFF" stroke-width="0.5" stroke-linecap="round" stroke-miterlimit="10" cx="14.9" cy="6.6" rx="10.6" ry="3"/>
<path fill="#C9C9C9" d="M20,1.6c0-1.1-2.1-1.8-2.7-1.5c-1.7,0.7-3.1,0.8-4.9,0C11.9-0.2,10,0.6,10,1.6c0,1,0,3.8,0,3.8
	c0,1.1,0.6,1.7,1.3,1.7h6.8c0.8,0,1.8-0.7,1.8-1.7C20,5.4,20,2.6,20,1.6z"/>
<path fill="#C9C9C9" d="M17.7,20c0,0.8-0.6,1.4-1.4,1.4h-2.5c-0.8,0-1.4-0.6-1.4-1.4v-0.4c0-0.8,0.6-1.4,1.4-1.4
	c0.9,0.3,1.7,0.4,2.5,0c0.8,0,1.4,0.6,1.4,1.4V20z"/>
<path fill="#C9C9C9" d="M16.7,26.1c0,0.3-0.9,0.5-1.6,0.5l0,0c-0.7,0-1.6-0.2-1.6-0.5v-5.3c0-0.3,0.9-0.5,1.6-0.5l0,0
	c0.7,0,1.6,0.2,1.6,0.5V26.1z"/>
<rect x="-6" y="25.1" fill="#FFFFFF" width="43" height="22"/>
</svg>
